<svg xmlns="http://www.w3.org/2000/svg" xmlns:xlink="http://www.w3.org/1999/xlink" viewBox="0 0 981.44 1194.56"><defs><style>.cls-1{fill:none;}.cls-2{fill:#fdeff5;}.cls-3{clip-path:url(#clip-path);}.cls-4{opacity:0.05;}.cls-5{clip-path:url(#clip-path-2);}.cls-6{fill:#8e1c52;}.cls-7{fill:#f0a8cb;}.cls-8{fill:#e3388c;}</style><clipPath id="clip-path"><rect class="cls-1" x="130.52" y="254.13" width="783.08" height="866.45"/></clipPath><clipPath id="clip-path-2"><rect class="cls-1" x="386.48" y="410" width="336.38" height="579.54"/></clipPath></defs><g id="Layer_2" data-name="Layer 2"><g id="Logo_Design" data-name="Logo Design"><path class="cls-2" d="M449.24,0h331a201.2,201.2,0,0,1,201.2,201.2V993.36a201.2,201.2,0,0,1-201.2,201.2h-579A201.2,201.2,0,0,1,0,993.36V449.24A449.24,449.24,0,0,1,449.24,0Z"/><g id="Group_63" data-name="Group 63"><g class="cls-3"><g id="Group_62" data-name="Group 62"><g id="Group_61" data-name="Group 61" class="cls-4"><g id="Group_60" data-name="Group 60"><g class="cls-5"><g id="Group_59" data-name="Group 59"><path id="Path_20" data-name="Path 20" class="cls-6" d="M686.87,487.33a166,166,0,0,0-61.53-53A249.88,249.88,0,0,0,510.52,410h-50v77.32H686.88Z"/><path id="Path_21" data-name="Path 21" class="cls-6" d="M460.54,487.36h0V410H387.05v77.32Z"/><path id="Path_23" data-name="Path 23" class="cls-7" d="M386.48,989.55h.58V912.22h-.58Z"/><path id="Path_24" data-name="Path 24" class="cls-6" d="M460.55,912.22v77.33h49.58a251.19,251.19,0,0,0,115-24.29,166,166,0,0,0,61.74-53H460.55Z"/><rect id="Rectangle_19" data-name="Rectangle 19" class="cls-6" x="387.06" y="912.23" width="73.49" height="77.33"/><rect id="Rectangle_20" data-name="Rectangle 20" class="cls-6" x="387.06" y="912.22" height="77.33"/><rect id="Rectangle_21" data-name="Rectangle 21" class="cls-8" x="387.06" y="487.33" width="73.49" height="173.78"/><rect id="Rectangle_22" data-name="Rectangle 22" class="cls-8" x="387.06" y="738.45" width="73.49" height="173.78"/><polygon id="Rectangle_23" data-name="Rectangle 23" class="cls-8" points="387.06 661.11 460.55 661.11 460.55 661.11 387.06 661.11"/><path id="Path_25" data-name="Path 25" class="cls-8" d="M637.56,827.68c-.19.81-.4,1.55-.62,2.32s-.41,1.45-.63,2.16a1.24,1.24,0,0,1-.11.36c-.24.76-.47,1.53-.72,2.28s-.52,1.58-.81,2.36-.54,1.55-.81,2.31-.56,1.52-.85,2.26h0c-.3.76-.6,1.51-.92,2.25s-.55,1.32-.81,2c-.1.25-.22.49-.32.73-.25.58-.51,1.15-.81,1.7h0c-.33.68-.64,1.36-1,2l-.14.27c-.32.64-.63,1.27-1,1.89l-.1.2c-.33.64-.67,1.27-1,1.89,0,.05-.05.1-.08.14-.37.68-.74,1.33-1.12,2s-.75,1.27-1.13,1.89l-.13.23c-.38.64-.78,1.27-1.19,1.89s-.81,1.31-1.28,2c-.86,1.29-1.76,2.57-2.68,3.81v.06c-.45.6-.9,1.19-1.36,1.78h0c-.42.56-.87,1.12-1.32,1.67l-.19.25c-.42.51-.81,1-1.27,1.53l-.2.23c-.48.56-1,1.12-1.46,1.67s-1,1.12-1.51,1.66l-.22.23-1.34,1.41-.25.25c-.5.52-1,1-1.52,1.53q-34,33.27-95.82,33.28H687a172.27,172.27,0,0,0,11-17.92l1.19-2.26.86-1.69c.27-.57.48-1,.73-1.45q2-4,3.83-8.29c.27-.61.52-1.23.81-1.85a2.34,2.34,0,0,0,.12-.3l.57-1.38.44-1.07.5-1.27.33-.81c.19-.48.38-1,.57-1.48.54-1.39,1.06-2.8,1.55-4.21l.44-1.24c.16-.44.31-.9.46-1.34.25-.72.48-1.45.73-2.18.13-.37.25-.75.36-1.13.24-.75.48-1.5.71-2.26s.41-1.32.6-2c.36-1.18.7-2.35,1-3.54.21-.81.43-1.55.63-2.33l0-.17c.18-.65.34-1.3.51-2l.3-1.18c.78-3.12,1.51-6.29,2.17-9.5q.18-.81.33-1.62c.12-.61.24-1.23.37-1.84a2.46,2.46,0,0,1,.06-.36c.18-.9.34-1.8.5-2.71s.32-1.81.46-2.73.27-1.62.39-2.38.25-1.62.37-2.38H638.15c-.18.81-.38,1.57-.59,2.35"/><path id="Path_26" data-name="Path 26" class="cls-8" d="M608.63,520.61a109.2,109.2,0,0,1,29.53,53.61h81.68a209.24,209.24,0,0,0-21.94-69,175.13,175.13,0,0,0-11-17.93H512.8q61.83,0,95.82,33.28"/><path id="Path_27" data-name="Path 27" class="cls-6" d="M642.61,785.07v3.78c0,.61,0,1.25,0,1.86a14.44,14.44,0,0,1-.05,1.47c0,1.3-.1,2.59-.17,3.87,0,.35,0,.72-.07,1.07s0,.6,0,.9c0,.5-.07,1-.1,1.48l-.09,1.11c0,.49-.07,1-.12,1.49s-.09,1-.13,1.49c-.1,1-.2,2-.31,2.94s-.23,2-.36,2.93v.17c-.1.84-.22,1.68-.34,2.51s-.26,1.71-.41,2.55v.15c-.14.87-.28,1.72-.44,2.58s-.33,1.73-.51,2.59-.34,1.62-.51,2.43a.24.24,0,0,1,0,.17c-.15.71-.31,1.4-.48,2.09l-.15.62h81.68c.1-.63.19-1.27.28-1.91.19-1.36.37-2.72.54-4.1.08-.62.16-1.22.22-1.85.17-1.43.32-2.88.47-4.34.05-.45.09-.9.13-1.37.07-.8.15-1.54.22-2.32q1.15-13.3,1.16-27.53V738.45H642.7Z"/><path id="Path_28" data-name="Path 28" class="cls-6" d="M719.84,574.23H638.16a170.48,170.48,0,0,1,4.46,40.25v46.64h80.24V617.67a296.5,296.5,0,0,0-3-43.44"/><polygon id="Rectangle_24" data-name="Rectangle 24" class="cls-6" points="642.61 661.11 658.5 661.11 658.5 661.11 642.61 661.11"/><polygon id="Rectangle_25" data-name="Rectangle 25" class="cls-8" points="387.06 738.44 460.55 738.44 460.55 738.44 387.06 738.44"/><rect id="Rectangle_26" data-name="Rectangle 26" class="cls-8" x="387.06" y="661.11" width="73.49" height="77.33"/><path id="Path_29" data-name="Path 29" class="cls-8" d="M658.5,738.44h64.36V661.11H658.5Z"/><rect id="Rectangle_27" data-name="Rectangle 27" class="cls-8" x="642.61" y="661.11" width="15.89" height="77.33"/></g></g></g></g></g></g></g><path class="cls-6" d="M422.47,463v0H349V385.61h73.49v0c80.76-3.8,176.94,3.89,226.32,77.3v0Z"/><path class="cls-6" d="M648.76,887.85c-49.45,73.25-145.55,81.1-226.29,77.3H349V887.83h73.49v0Z"/><rect class="cls-8" x="348.98" y="462.94" width="73.49" height="424.89"/><path id="Path_36" data-name="Path 36" class="cls-8" d="M599.49,803.29a127.89,127.89,0,0,1-4.56,14.05h0c-.92,2.25-1.75,4.5-2.85,6.66h0a106.91,106.91,0,0,1-10.81,18.19v.06L579.91,844h0c-24.36,30.46-58,43.29-105.09,43.69H648.9c18.06-25.6,28.54-56,33-86.83H600.08c-.18.81-.39,1.57-.59,2.35"/><path id="Path_37" data-name="Path 37" class="cls-8" d="M570.55,496.22a109.13,109.13,0,0,1,29.53,53.61h81.68c-4.3-30.93-15.06-61.19-33-86.89H474.72q61.83,0,95.82,33.28"/><path id="Path_38" data-name="Path 38" class="cls-6" d="M604.53,760.68a165.33,165.33,0,0,1-4.33,40.22h81.68c4.13-24.74,2.82-61.37,3-86.85H604.64Z"/><path id="Path_39" data-name="Path 39" class="cls-6" d="M681.76,549.83H600.08c6.47,23.76,4,62.22,4.45,86.89h80.25c-.18-25.67,1.13-61.79-3-86.89"/><rect class="cls-8" x="604.52" y="636.72" width="80.26" height="77.33"/></g></g></svg>