<svg xmlns="http://www.w3.org/2000/svg" xmlns:xlink="http://www.w3.org/1999/xlink" viewBox="0 0 864 864"><defs><style>.cls-1{fill:none;}.cls-2{fill:#fdf0f6;}.cls-3{clip-path:url(#clip-path);}.cls-4{opacity:0.05;}.cls-5{clip-path:url(#clip-path-2);}.cls-6{fill:#8e1c52;}.cls-7{fill:#f0a8cb;}.cls-8{fill:#e3388c;}</style><clipPath id="clip-path"><rect class="cls-1" x="99.43" y="77.79" width="665.15" height="708.43"/></clipPath><clipPath id="clip-path-2"><rect class="cls-1" x="316.84" y="205.23" width="285.72" height="473.85"/></clipPath></defs><g id="Layer_2" data-name="Layer 2"><g id="Logo_Design" data-name="Logo Design"><rect class="cls-2" width="864" height="864" rx="50.04"/><g id="Group_63" data-name="Group 63"><g class="cls-3"><g id="Group_62" data-name="Group 62"><g id="Group_61" data-name="Group 61" class="cls-4"><g id="Group_60" data-name="Group 60"><g class="cls-5"><g id="Group_59" data-name="Group 59"><path id="Path_20" data-name="Path 20" class="cls-6" d="M572,268.46a139.48,139.48,0,0,0-52.27-43.35,219.45,219.45,0,0,0-97.52-19.86H379.76v63.22H572Z"/><path id="Path_21" data-name="Path 21" class="cls-6" d="M379.74,268.48h0V205.26H317.32v63.22Z"/><path id="Path_23" data-name="Path 23" class="cls-7" d="M316.84,679.08h.49V615.86h-.49Z"/><path id="Path_24" data-name="Path 24" class="cls-6" d="M379.75,615.86v63.22h42.11a220.32,220.32,0,0,0,97.66-19.86A139.64,139.64,0,0,0,572,615.88H379.75Z"/><rect id="Rectangle_19" data-name="Rectangle 19" class="cls-6" x="317.33" y="615.86" width="62.42" height="63.22"/><rect id="Rectangle_20" data-name="Rectangle 20" class="cls-6" x="317.33" y="615.86" height="63.22"/><rect id="Rectangle_21" data-name="Rectangle 21" class="cls-8" x="317.33" y="268.46" width="62.42" height="142.09"/><rect id="Rectangle_22" data-name="Rectangle 22" class="cls-8" x="317.33" y="473.77" width="62.42" height="142.09"/><polygon id="Rectangle_23" data-name="Rectangle 23" class="cls-8" points="317.33 410.54 379.75 410.54 379.75 410.54 317.33 410.54"/><path id="Path_25" data-name="Path 25" class="cls-8" d="M530.11,546.73c-.17.67-.35,1.27-.53,1.9s-.35,1.18-.54,1.77a1.2,1.2,0,0,1-.09.29c-.2.63-.4,1.25-.61,1.86s-.44,1.29-.69,1.93-.46,1.27-.69,1.89-.48,1.24-.72,1.85h0c-.26.62-.51,1.24-.78,1.84s-.47,1.08-.69,1.62l-.27.6c-.22.47-.44.93-.69,1.39h0c-.28.56-.54,1.11-.83,1.65l-.11.23c-.27.52-.54,1-.82,1.54l-.09.17c-.28.52-.57,1-.86,1.54a.75.75,0,0,1-.07.12c-.31.55-.63,1.08-.95,1.62s-.63,1-1,1.55l-.11.19c-.33.52-.66,1-1,1.54s-.68,1.07-1.08,1.61c-.74,1.05-1.5,2.1-2.29,3.11v0c-.37.49-.76,1-1.14,1.46h0c-.37.46-.75.91-1.13,1.37l-.16.2c-.36.42-.69.83-1.08,1.25l-.17.19c-.41.46-.82.92-1.24,1.37s-.85.91-1.29,1.35l-.18.2-1.14,1.14-.21.21c-.43.43-.86.84-1.29,1.25q-28.89,27.21-81.39,27.21H572.07a139.82,139.82,0,0,0,9.37-14.65c.34-.62.68-1.23,1-1.85.25-.46.5-.92.73-1.38l.62-1.19c1.14-2.21,2.22-4.46,3.25-6.77.23-.51.45-1,.69-1.52a2.56,2.56,0,0,0,.11-.24l.48-1.13.37-.88.43-1c.09-.23.19-.45.28-.66l.48-1.21q.69-1.71,1.32-3.45l.37-1c.14-.36.27-.74.39-1.1.21-.59.41-1.18.62-1.78.11-.3.21-.62.31-.93.21-.61.41-1.22.61-1.84s.34-1.08.5-1.63c.31-1,.6-1.92.88-2.9.18-.66.36-1.26.53-1.9l.05-.13c.15-.54.28-1.07.43-1.61l.25-1c.67-2.55,1.28-5.14,1.85-7.78.1-.44.19-.88.28-1.32s.2-1,.31-1.5c0-.09,0-.19,0-.29.15-.74.29-1.48.43-2.22s.27-1.48.39-2.23.23-1.33.33-2l.31-2H530.61c-.16.67-.32,1.29-.5,1.92"/><path id="Path_26" data-name="Path 26" class="cls-8" d="M505.53,295.66a88.42,88.42,0,0,1,25.09,43.84H600a166.81,166.81,0,0,0-18.64-56.38A142.59,142.59,0,0,0,572,268.46H424.13q52.51,0,81.39,27.2"/><path id="Path_27" data-name="Path 27" class="cls-6" d="M534.39,511.89V515c0,.51,0,1,0,1.53a11.73,11.73,0,0,1,0,1.19c0,1.07-.09,2.12-.15,3.17,0,.29,0,.59,0,.88s0,.49,0,.73c0,.41-.06.81-.09,1.21l-.07.91a10.24,10.24,0,0,1-.11,1.22c0,.41-.07.82-.11,1.22-.08.81-.16,1.6-.26,2.4s-.19,1.6-.3,2.39V532c-.09.69-.19,1.38-.3,2s-.22,1.41-.34,2.1v.11c-.12.71-.24,1.41-.38,2.11s-.27,1.42-.42,2.12-.29,1.32-.44,2a.18.18,0,0,1,0,.14c-.13.59-.27,1.15-.41,1.72,0,.16-.08.33-.13.5h69.38c.09-.52.16-1,.24-1.55.16-1.12.32-2.24.46-3.36.06-.5.13-1,.18-1.51.15-1.17.28-2.36.4-3.55,0-.37.08-.74.11-1.12.07-.66.13-1.26.19-1.9q1-10.87,1-22.51V473.78H534.47Z"/><path id="Path_28" data-name="Path 28" class="cls-6" d="M600,339.51H530.62a134.72,134.72,0,0,1,3.78,32.91v38.13h68.16V375A234.58,234.58,0,0,0,600,339.51"/><polygon id="Rectangle_24" data-name="Rectangle 24" class="cls-6" points="534.39 410.54 547.89 410.54 547.89 410.54 534.39 410.54"/><polygon id="Rectangle_25" data-name="Rectangle 25" class="cls-8" points="317.33 473.77 379.75 473.77 379.75 473.77 317.33 473.77"/><rect id="Rectangle_26" data-name="Rectangle 26" class="cls-8" x="317.33" y="410.54" width="62.42" height="63.22"/><path id="Path_29" data-name="Path 29" class="cls-8" d="M547.89,473.77h54.66V410.54H547.89Z"/><rect id="Rectangle_27" data-name="Rectangle 27" class="cls-8" x="534.39" y="410.54" width="13.5" height="63.22"/></g></g></g></g></g></g></g><path class="cls-6" d="M368.09,257.61v0H305.67V194.36h62.42v0c68.6-3.11,150.29,3.18,192.23,63.2v0Z"/><path class="cls-6" d="M560.3,605c-42,59.89-123.63,66.31-192.21,63.21H305.67V605H560.3Z"/><rect class="cls-8" x="305.67" y="257.59" width="62.42" height="347.4"/><path id="Path_36" data-name="Path 36" class="cls-8" d="M518.45,535.86a101.37,101.37,0,0,1-3.87,11.49h0c-.79,1.84-1.5,3.68-2.43,5.44h0A86.11,86.11,0,0,1,503,567.67v.05l-1.15,1.46h0c-20.7,24.91-49.29,35.4-89.27,35.73H560.42c15.33-20.94,24.24-45.75,28-71H519c-.16.66-.33,1.29-.5,1.92"/><path id="Path_37" data-name="Path 37" class="cls-8" d="M493.87,284.79A88.4,88.4,0,0,1,519,328.63h69.38c-3.66-25.29-12.79-50-28-71H412.47q52.51,0,81.38,27.2"/><path id="Path_38" data-name="Path 38" class="cls-6" d="M522.73,501a130.59,130.59,0,0,1-3.68,32.89h69.38c3.51-20.22,2.4-50.18,2.55-71H522.82Z"/><path id="Path_39" data-name="Path 39" class="cls-6" d="M588.32,328.63H519c5.49,19.43,3.42,50.87,3.78,71.05h68.16c-.15-21,1-50.53-2.57-71.05"/><rect class="cls-8" x="522.72" y="399.67" width="68.17" height="63.23"/></g></g></svg>