<svg xmlns="http://www.w3.org/2000/svg" viewBox="0 0 1344.83 1344.83"><defs><style>.cls-1{fill:#fdeff5;}.cls-2{opacity:0.05;}.cls-3{fill:none;}.cls-4{fill:#a32563;}.cls-5{fill:#f7b9d4;}.cls-6{fill:#ef509d;}</style></defs><g id="Logo_Bg" data-name="Logo Bg"><rect class="cls-1" width="1344.83" height="1344.83" rx="233"/></g><g id="Logo_Design" data-name="Logo Design"><g class="cls-2"><path class="cls-3" d="M1648.65,1797.38c.88-.78,1.76-1.57,2.62-2.37l.43-.4c.77-.72,1.54-1.44,2.29-2.17l.37-.36c.88-.85,1.75-1.71,2.6-2.58s1.68-1.72,2.5-2.59l.35-.37c.74-.78,1.46-1.57,2.18-2.37.12-.12.23-.24.34-.37.77-.86,1.53-1.73,2.27-2.6l.06-.06c.78-.92,1.56-1.84,2.32-2.77l.07-.09c1.59-1.93,3.13-3.91,4.62-5.91.75-1,1.48-2,2.2-3s1.37-1.95,2-2.94c.08-.11.15-.23.23-.35.65-1,1.3-2,1.93-2.94s1.29-2,1.92-3.08a1.76,1.76,0,0,0,.14-.23c.59-1,1.17-1.94,1.74-2.93l.18-.32c.56-1,1.11-2,1.65-2.93l.24-.43c.57-1,1.12-2.09,1.67-3.15h0c.46-.87.9-1.75,1.33-2.64.19-.38.38-.75.56-1.13.5-1,1-2,1.45-3.07s1.06-2.32,1.57-3.5l0,0q.75-1.74,1.47-3.51c.49-1.19,1-2.39,1.42-3.6s.92-2.43,1.36-3.66.82-2.35,1.22-3.53c.07-.19.13-.38.19-.57q.55-1.66,1.08-3.36c.37-1.19.73-2.39,1.07-3.59s.7-2.43,1-3.65c.08-.32.17-.63.25-1,.29-1.08.56-2.16.83-3.26,0-.09,0-.18.07-.27.31-1.27.6-2.55.89-3.83s.58-2.67.86-4,.52-2.65.76-4a1.55,1.55,0,0,0,0-.23c.24-1.31.47-2.64.69-4s.41-2.59.6-3.9c0-.09,0-.18,0-.27.22-1.51.42-3,.61-4.55s.36-3,.53-4.55c.08-.77.16-1.54.23-2.31s.15-1.55.21-2.32l.15-1.72c.06-.76.12-1.52.17-2.29,0-.46.07-.93.09-1.39s.08-1.11.11-1.67q.18-3,.29-6c0-.75.06-1.51.08-2.27,0-1,0-1.93.07-2.89l0-1.81c0-.52,0-1,0-1.55,0-.83,0-1.65,0-2.48V1579.3H1394.35V1849h89.75Q1590.29,1849,1648.65,1797.38Z" transform="translate(-827.59 -827.59)"/><path class="cls-3" d="M1394.35,1459.28H1707v-72.39q0-34-7.64-62.47h0q-13.47-50.25-50.72-83.21-58.37-51.65-164.55-51.65h-89.75v269.73Z" transform="translate(-827.59 -827.59)"/><rect x="440.56" y="361.96"/><path class="cls-4" d="M1783,1189.55q-40.47-52.17-105.7-82.28-81.76-37.74-197.17-37.74h-85.81v120H1783Z" transform="translate(-827.59 -827.59)"/><polygon class="cls-4" points="566.76 361.96 440.56 361.96 440.56 361.96 566.76 361.96 566.76 241.94 440.56 241.94 440.56 361.96 566.76 361.96 566.76 361.96"/><rect class="cls-4" x="440.56" y="361.96" width="126.2"/><polygon class="cls-5" points="439.56 1141.46 440.56 1141.46 440.56 1141.46 440.56 1141.46 440.56 1021.44 440.56 1021.44 440.56 1021.44 439.56 1021.44 439.56 1141.46"/><path class="cls-4" d="M1394.35,1849v120h85.14q115.4,0,197.5-37.74,65.51-30.11,106-82.28H1394.35Z" transform="translate(-827.59 -827.59)"/><rect class="cls-4" x="440.56" y="1021.44" width="126.2" height="120.02"/><rect class="cls-4" x="440.56" y="1021.44" height="120.02"/><rect class="cls-6" x="440.56" y="361.96" width="126.2" height="269.73"/><rect class="cls-6" x="440.56" y="751.71" width="126.2" height="269.73"/><rect class="cls-6" x="440.56" y="631.69" width="126.2"/><path class="cls-6" d="M1698.35,1717.82c-.34,1.2-.7,2.4-1.07,3.59s-.71,2.25-1.08,3.36c-.06.19-.12.38-.19.57-.4,1.18-.8,2.36-1.22,3.53s-.89,2.45-1.36,3.66-.93,2.41-1.42,3.6-1,2.35-1.47,3.51l0,0c-.51,1.18-1,2.35-1.57,3.5s-1,2-1.45,3.07c-.18.38-.37.75-.56,1.13-.43.89-.87,1.77-1.33,2.64h0c-.55,1.06-1.1,2.11-1.67,3.15l-.24.43c-.54,1-1.09,2-1.65,2.93l-.18.32c-.57,1-1.15,2-1.74,2.93a1.76,1.76,0,0,1-.14.23c-.63,1-1.27,2.06-1.92,3.08s-1.28,2-1.93,2.94c-.08.12-.15.24-.23.35q-1,1.48-2,2.94c-.72,1-1.45,2-2.2,3-1.49,2-3,4-4.62,5.91l-.07.09c-.76.93-1.54,1.85-2.32,2.77l-.06.06c-.74.87-1.5,1.74-2.27,2.6-.11.13-.22.25-.34.37-.72.8-1.44,1.59-2.18,2.37l-.35.37c-.82.87-1.65,1.74-2.5,2.59s-1.72,1.73-2.6,2.58l-.37.36c-.75.73-1.52,1.45-2.29,2.17l-.43.4c-.86.8-1.74,1.59-2.62,2.37Q1590.29,1849,1484.1,1849H1783A264.91,264.91,0,0,0,1802,1821.2q1-1.76,2-3.51c.5-.87,1-1.75,1.48-2.63s.84-1.49,1.25-2.25q3.45-6.32,6.58-12.86c.46-1,.91-1.91,1.36-2.87.08-.16.15-.31.21-.46l1-2.14.75-1.67.87-2c.18-.43.37-.85.55-1.28.33-.76.66-1.53,1-2.3q1.37-3.24,2.66-6.54l.75-1.93c.27-.69.54-1.39.79-2.09.43-1.12.84-2.25,1.25-3.38.22-.58.43-1.17.63-1.76.42-1.16.82-2.33,1.22-3.5.35-1,.7-2,1-3.08.61-1.83,1.19-3.66,1.76-5.51.37-1.2.74-2.4,1.09-3.61l.08-.26c.3-1,.59-2,.88-3l.51-1.82q2-7.26,3.72-14.75c.2-.84.39-1.69.57-2.54s.42-1.9.62-2.85c0-.18.08-.36.11-.55.3-1.4.58-2.8.86-4.21s.54-2.81.8-4.23c.23-1.23.45-2.47.66-3.7s.42-2.46.62-3.69a.06.06,0,0,0,0,0H1699.37C1699.05,1715.39,1698.71,1716.61,1698.35,1717.82Z" transform="translate(-827.59 -827.59)"/><path class="cls-6" d="M1648.65,1241.2q37.24,33,50.72,83.21h140.27q-9.72-59.84-37.68-107a269.14,269.14,0,0,0-18.93-27.84H1484.1Q1590.29,1189.55,1648.65,1241.2Z" transform="translate(-827.59 -827.59)"/><path class="cls-4" d="M1707,1651.67c0,.83,0,1.65,0,2.48,0,.51,0,1,0,1.55l0,1.81c0,1,0,1.93-.07,2.89,0,.76-.05,1.52-.08,2.27q-.1,3-.29,6c0,.56-.07,1.12-.11,1.67s-.06.93-.09,1.39c0,.77-.11,1.53-.17,2.29l-.15,1.72c-.06.77-.13,1.55-.21,2.32s-.15,1.54-.23,2.31c-.17,1.53-.34,3-.53,4.55s-.39,3-.61,4.55c0,.09,0,.18,0,.27q-.28,2-.6,3.9c-.22,1.33-.45,2.66-.69,4a1.55,1.55,0,0,1,0,.23c-.24,1.34-.49,2.67-.76,4s-.56,2.69-.86,4-.58,2.56-.89,3.83c0,.09,0,.18-.07.27-.27,1.1-.54,2.18-.83,3.26-.08.32-.17.63-.25,1h140.27v0c.16-1,.32-2,.47-3q.5-3.17.93-6.37c.13-1,.26-1.9.38-2.86q.43-3.35.81-6.74c.08-.7.16-1.41.23-2.12.13-1.2.25-2.4.37-3.61q2-20.67,2-42.74V1579.3H1707Z" transform="translate(-827.59 -827.59)"/><path class="cls-4" d="M1839.64,1324.42H1699.37q7.65,28.45,7.64,62.47v72.39h137.82v-67.43A420.07,420.07,0,0,0,1839.64,1324.42Z" transform="translate(-827.59 -827.59)"/><rect class="cls-4" x="879.42" y="631.69" width="27.3"/><rect class="cls-6" x="440.56" y="751.71" width="126.2"/><rect class="cls-6" x="440.56" y="631.69" width="126.2" height="120.02"/><polygon class="cls-6" points="906.72 751.71 879.42 751.71 879.42 751.71 1017.24 751.71 1017.24 631.69 906.72 631.69 906.72 751.71"/><rect class="cls-6" x="879.42" y="631.69" width="27.3" height="120.02"/></g><path class="cls-3" d="M1625.35,1778.09c.89-.78,1.76-1.57,2.63-2.37l.43-.4c.77-.72,1.54-1.44,2.29-2.17.12-.12.25-.24.36-.36.89-.85,1.75-1.71,2.61-2.58s1.67-1.72,2.5-2.59l.35-.37c.74-.78,1.46-1.57,2.18-2.37.11-.12.23-.24.34-.37.76-.86,1.52-1.73,2.26-2.6a.17.17,0,0,0,.06-.06c.79-.92,1.57-1.84,2.33-2.77l.07-.09c1.58-1.93,3.13-3.91,4.62-5.91.74-1,1.47-2,2.19-3s1.38-2,2-2.94a2.64,2.64,0,0,0,.23-.35c.66-1,1.31-2,1.94-2.94s1.28-2,1.92-3.08a1.71,1.71,0,0,0,.13-.23c.6-1,1.18-1.94,1.74-2.93a3.37,3.37,0,0,0,.19-.32l1.65-2.93c.08-.15.15-.29.24-.43.57-1,1.12-2.09,1.66-3.15h0c.47-.87.91-1.75,1.34-2.64.18-.38.38-.75.56-1.13.5-1,1-2,1.45-3.07s1.06-2.32,1.57-3.5l0,0q.75-1.74,1.47-3.51c.49-1.19,1-2.39,1.42-3.6s.91-2.43,1.36-3.66.81-2.35,1.22-3.53c.07-.19.12-.38.19-.57q.55-1.67,1.08-3.36c.36-1.19.73-2.39,1.06-3.59s.71-2.43,1-3.65c.09-.32.18-.63.25-1,.29-1.08.57-2.16.84-3.26,0-.09,0-.18.07-.27.31-1.27.59-2.55.88-3.83s.59-2.67.87-4,.52-2.65.76-4a1.55,1.55,0,0,0,0-.23c.24-1.31.47-2.64.69-4s.41-2.59.59-3.9c0-.09,0-.18,0-.27.22-1.51.43-3,.62-4.55s.35-3,.53-4.55c.07-.77.16-1.54.23-2.31s.15-1.55.21-2.32c0-.58.09-1.15.14-1.72.07-.76.13-1.52.18-2.29,0-.46.06-.93.08-1.39s.09-1.11.12-1.67c.11-2,.22-4,.29-6,0-.75,0-1.51.07-2.27,0-1,.06-1.93.08-2.89l0-1.81c0-.52,0-1,0-1.55,0-.83,0-1.65,0-2.48V1560H1371.05v269.73h89.75Q1567,1829.74,1625.35,1778.09Z" transform="translate(-827.59 -827.59)"/><path class="cls-3" d="M1371.05,1440h312.67V1367.6q0-34-7.65-62.47h0q-13.47-50.25-50.72-83.21-58.35-51.65-164.55-51.65h-89.75V1440Z" transform="translate(-827.59 -827.59)"/><rect x="417.26" y="342.67"/><path class="cls-4" d="M1759.74,1170.26q-40.47-52.17-105.7-82.28-81.76-37.74-197.18-37.74h-85.81v120h388.69Z" transform="translate(-827.59 -827.59)"/><polygon class="cls-4" points="543.47 342.67 417.26 342.67 417.26 342.67 543.47 342.67 543.47 222.66 417.26 222.66 417.26 342.67 543.47 342.67 543.47 342.67"/><rect class="cls-4" x="417.26" y="342.67" width="126.2"/><polygon class="cls-5" points="416.27 1122.17 417.27 1122.17 417.27 1122.17 417.26 1122.17 417.26 1002.15 417.27 1002.15 417.27 1002.15 416.27 1002.15 416.27 1122.17"/><path class="cls-4" d="M1371.05,1829.74v120h85.15q115.38,0,197.5-37.74,65.49-30.11,106-82.28H1371.05Z" transform="translate(-827.59 -827.59)"/><rect class="cls-4" x="417.27" y="1002.15" width="126.2" height="120.02"/><rect class="cls-4" x="417.26" y="1002.15" height="120.02"/><rect class="cls-6" x="417.27" y="342.67" width="126.2" height="269.73"/><rect class="cls-6" x="417.27" y="732.42" width="126.2" height="269.73"/><rect class="cls-6" x="417.27" y="612.4" width="126.2"/><path class="cls-6" d="M1675.05,1698.53c-.33,1.2-.7,2.4-1.06,3.59s-.71,2.25-1.08,3.36c-.07.19-.12.38-.19.57-.41,1.18-.8,2.36-1.22,3.53s-.9,2.45-1.36,3.66-.93,2.41-1.42,3.6-1,2.35-1.47,3.51l0,0c-.51,1.18-1,2.35-1.57,3.5s-1,2-1.45,3.07c-.18.38-.38.75-.56,1.13-.43.89-.87,1.77-1.34,2.64h0c-.54,1.06-1.09,2.11-1.66,3.15-.09.14-.16.28-.24.43l-1.65,2.93a3.37,3.37,0,0,1-.19.32c-.56,1-1.14,2-1.74,2.93a1.71,1.71,0,0,1-.13.23c-.64,1-1.27,2.06-1.92,3.08s-1.28,2-1.94,2.94a2.64,2.64,0,0,1-.23.35q-1,1.49-2,2.94c-.72,1-1.45,2-2.19,3-1.49,2-3,4-4.62,5.91l-.07.09c-.76.93-1.54,1.85-2.33,2.77l-.06.06c-.74.87-1.5,1.74-2.26,2.6-.11.13-.23.25-.34.37-.72.8-1.44,1.59-2.18,2.37l-.35.37c-.83.87-1.65,1.74-2.5,2.59s-1.72,1.73-2.61,2.58c-.11.12-.24.24-.36.36-.75.73-1.52,1.45-2.29,2.17l-.43.4c-.87.8-1.74,1.59-2.63,2.37q-58.35,51.65-164.55,51.65h298.93a266.45,266.45,0,0,0,18.94-27.83c.68-1.17,1.37-2.34,2-3.51.5-.87,1-1.75,1.48-2.63s.84-1.49,1.25-2.25q3.45-6.32,6.58-12.86c.46-1,.91-1.91,1.36-2.87a3.57,3.57,0,0,0,.2-.46c.34-.71.67-1.43,1-2.14l.75-1.67c.29-.65.59-1.31.88-2,.18-.43.36-.85.55-1.28.32-.76.66-1.53,1-2.3q1.37-3.24,2.66-6.54l.75-1.93c.27-.69.54-1.39.79-2.09.42-1.12.84-2.25,1.25-3.38.22-.58.42-1.17.62-1.76.43-1.16.82-2.33,1.23-3.5.35-1,.7-2,1-3.08.62-1.83,1.2-3.66,1.76-5.51.38-1.2.74-2.4,1.1-3.61l.08-.26c.3-1,.58-2,.87-3,.18-.6.35-1.21.52-1.82,1.34-4.84,2.59-9.76,3.71-14.75.2-.84.4-1.69.58-2.54s.41-1.9.62-2.85c0-.18.07-.36.11-.55.3-1.4.58-2.8.86-4.21s.53-2.81.79-4.23c.24-1.23.46-2.47.67-3.7s.42-2.46.61-3.69a.06.06,0,0,0,0,0H1676.07C1675.76,1696.1,1675.42,1697.32,1675.05,1698.53Z" transform="translate(-827.59 -827.59)"/><path class="cls-6" d="M1625.35,1221.91q37.26,33,50.72,83.21h140.27q-9.72-59.83-37.67-107a270.73,270.73,0,0,0-18.93-27.84H1460.8Q1567,1170.26,1625.35,1221.91Z" transform="translate(-827.59 -827.59)"/><path class="cls-4" d="M1683.72,1632.38c0,.83,0,1.65,0,2.48,0,.51,0,1,0,1.55l0,1.81c0,1-.05,1.93-.08,2.89,0,.76,0,1.52-.07,2.27-.07,2-.18,4-.29,6,0,.56-.07,1.12-.12,1.67s-.06.93-.08,1.39c0,.77-.11,1.53-.18,2.29,0,.57-.09,1.14-.14,1.72-.06.77-.14,1.55-.21,2.32s-.16,1.54-.23,2.31c-.18,1.53-.34,3-.53,4.55s-.4,3-.62,4.55c0,.09,0,.18,0,.27-.18,1.31-.38,2.61-.59,3.9s-.45,2.66-.69,4a1.55,1.55,0,0,1,0,.23c-.24,1.34-.49,2.67-.76,4s-.56,2.69-.87,4-.57,2.56-.88,3.83c0,.09,0,.18-.07.27-.27,1.1-.55,2.18-.84,3.26-.07.32-.16.63-.25,1h140.27v0c.17-1,.33-2,.47-3q.51-3.17.94-6.37c.13-1,.26-1.9.37-2.86q.45-3.35.82-6.74c.08-.7.15-1.41.23-2.12.12-1.2.25-2.4.37-3.61q2-20.67,2-42.74V1560H1683.72Z" transform="translate(-827.59 -827.59)"/><path class="cls-4" d="M1816.34,1305.13H1676.07q7.67,28.45,7.65,62.47V1440h137.82v-67.43A420,420,0,0,0,1816.34,1305.13Z" transform="translate(-827.59 -827.59)"/><rect class="cls-4" x="856.13" y="612.4" width="27.3"/><rect class="cls-6" x="417.27" y="732.42" width="126.2"/><rect class="cls-6" x="417.27" y="612.4" width="126.2" height="120.02"/><polygon class="cls-6" points="883.43 732.42 856.13 732.42 856.13 732.42 993.95 732.42 993.95 612.4 883.43 612.4 883.43 732.42"/><rect class="cls-6" x="856.13" y="612.4" width="27.3" height="120.02"/></g></svg>